<mxfile host="app.diagrams.net" modified="2023-12-30T15:49:19.983Z" agent="Mozilla/5.0 (Macintosh; Intel Mac OS X 10_15_7) AppleWebKit/537.36 (KHTML, like Gecko) Chrome/120.0.0.0 Safari/537.36" version="21.1.8" etag="TxtFgoNKtDXFHiw7NlC8" type="github">
  <diagram name="第 1 页" id="alsgh1u_unIC5YSjnybs">
    <mxGraphModel>
      <root>
        <mxCell id="0" />
        <mxCell id="1" parent="0" />
      </root>
    </mxGraphModel>
  </diagram>
</mxfile>
